<?xml version="1.0" encoding="utf-8"?>
<!-- Generator: Adobe Illustrator 21.0.0, SVG Export Plug-In . SVG Version: 6.00 Build 0)  -->
<svg version="1.1" id="Capa_1" xmlns="http://www.w3.org/2000/svg" xmlns:xlink="http://www.w3.org/1999/xlink" x="0px" y="0px"
	 viewBox="0 0 213 53" style="enable-background:new 0 0 213 53;" xml:space="preserve">
<style type="text/css">
	.st0{filter:url(#Adobe_OpacityMaskFilter);}
	.st1{fill:#FFFFFF;}
	.st2{mask:url(#b);}
	.st3{fill:#009EE3;}
	.st4{enable-background:new    ;}
	.st5{fill:#00B0EB;}
	.st6{fill:#F6F6F6;}
	.st7{fill:#F7F7F7;}
</style>
<defs>
	<filter id="Adobe_OpacityMaskFilter" filterUnits="userSpaceOnUse" x="0" y="0" width="213" height="53">
		<feColorMatrix  type="matrix" values="1 0 0 0 0  0 1 0 0 0  0 0 1 0 0  0 0 0 1 0"/>
	</filter>
</defs>
<mask maskUnits="userSpaceOnUse" x="0" y="0" width="213" height="53" id="b">
	<g class="st0">
		<path id="a" class="st1" d="M-80.5-13.5h384v80h-384V-13.5z"/>
	</g>
</mask>
<g class="st2">
	<g>
		<path class="st3" d="M213,53h-8.5v-1h7.5V1h-7.5V0h8.5V53z M8.5,53H0V0h8.5v1H1v51h7.5V53z"/>
	</g>
	<g class="st4">
		<path class="st5" d="M15.4,13.2c1.1,0,2.1,0.3,2.9,0.7v1.5c-0.8-0.6-1.8-0.9-2.9-0.9c-2.3,0-3.9,1.7-3.9,4c0,2.3,1.6,4,4,4
			c1.1,0,2.1-0.4,2.9-1v1.5c-0.8,0.5-1.9,0.8-3,0.8c-3.1,0-5.3-2.2-5.3-5.2C10.1,15.6,12.2,13.2,15.4,13.2z"/>
		<path class="st5" d="M24.7,13.2c2.9,0,5.2,2.3,5.2,5.2c0,2.9-2.2,5.2-5.2,5.2c-2.9,0-5.2-2.3-5.2-5.2
			C19.6,15.5,21.8,13.2,24.7,13.2z M24.7,22.4c2.2,0,3.8-1.8,3.8-4c0-2.2-1.6-4-3.8-4c-2.2,0-3.8,1.8-3.8,4
			C20.9,20.7,22.5,22.4,24.7,22.4z"/>
		<path class="st5" d="M34.2,17.6c-0.5-0.7-0.9-1.3-1.4-2l0,0c0,0.6,0,1.4,0,2.2v5.7h-1.3V13.4h1.3l3.6,5.2l3.6-5.2h1.3v10.1H40
			v-5.7c0-0.8,0-1.6,0-2.2l0,0c-0.4,0.7-0.9,1.3-1.4,2l-2.2,3.2L34.2,17.6z"/>
		<path class="st5" d="M43.6,13.4h2.6c1.1,0,2.1,0,3,0.5c0.9,0.5,1.5,1.3,1.5,2.5c0,1.1-0.6,2-1.4,2.5c-0.9,0.5-2.1,0.6-3.4,0.6
			h-1.1v4h-1.3V13.4z M46.2,18.3c1.2,0,1.9,0,2.4-0.4c0.5-0.3,0.8-0.8,0.8-1.5c0-0.8-0.4-1.3-0.9-1.6c-0.6-0.3-1.4-0.3-2.3-0.3h-1.2
			v3.8H46.2z"/>
		<path class="st5" d="M52.3,13.4h2.7c1,0,2,0,2.8,0.5c0.8,0.5,1.4,1.2,1.4,2.4c0,1.1-0.5,1.9-1.3,2.4c-0.4,0.2-0.7,0.4-1.2,0.4
			l3.2,4.5h-1.6l-3.1-4.3h-1.7v4.3h-1.3V13.4z M55.4,18.1c0.9,0,1.5-0.1,2-0.5c0.4-0.3,0.6-0.7,0.6-1.3c0-0.6-0.3-1.1-0.8-1.4
			c-0.5-0.3-1.2-0.3-2.2-0.3h-1.3v3.5H55.4z"/>
		<path class="st5" d="M64.5,13.4h1.3L70,23.5h-1.4l-1.1-2.8h-4.6l-1.1,2.8h-1.4L64.5,13.4z M63.3,19.5H67l-0.8-2.1
			c-0.3-0.8-0.7-1.7-1-2.5h0c-0.3,0.8-0.6,1.7-1,2.5L63.3,19.5z"/>
	</g>
	<g class="st4">
		<path class="st5" d="M132.1,13h3.9c1.5,0,2.9,0.1,4,0.7c1.2,0.7,2,1.8,2,3.4c0,1.6-0.8,2.7-1.9,3.4c-0.5,0.3-1.1,0.5-1.7,0.6
			l4.6,6.4h-2.3l-4.4-6.2H134v6.2h-1.9V13z M136.5,19.7c1.3,0,2.2-0.2,2.8-0.7c0.5-0.4,0.9-1,0.9-1.8c0-0.9-0.4-1.6-1.2-2.1
			c-0.8-0.4-1.7-0.5-3.1-0.5H134v5H136.5z"/>
		<path class="st5" d="M145,13h8.4v1.7h-6.5v4.4h5.7v1.7h-5.7v5h6.6v1.7H145V13z"/>
		<path class="st5" d="M159.7,14.7h-4.9V13h11.6v1.7h-4.9v12.8h-1.9V14.7z"/>
		<path class="st5" d="M168.5,13h1.9v14.5h-1.9V13z"/>
		<path class="st5" d="M173.6,13h3.9c1.5,0,2.9,0.1,4,0.7c1.2,0.7,2,1.8,2,3.4c0,1.6-0.8,2.7-1.9,3.4c-0.5,0.3-1.1,0.5-1.7,0.6
			l4.6,6.4h-2.3l-4.4-6.2h-2.5v6.2h-1.9V13z M178,19.7c1.3,0,2.2-0.2,2.8-0.7c0.5-0.4,0.9-1,0.9-1.8c0-0.9-0.4-1.6-1.2-2.1
			c-0.8-0.4-1.7-0.5-3.1-0.5h-1.9v5H178z"/>
		<path class="st5" d="M191.1,13h1.8l6,14.5h-2l-1.6-4h-6.5l-1.6,4h-1.9L191.1,13z M189.4,21.8h5.2l-1.2-3c-0.5-1.2-0.9-2.4-1.4-3.6
			h0c-0.4,1.2-0.9,2.4-1.4,3.6L189.4,21.8z"/>
	</g>
	<g class="st4">
		<path class="st5" d="M15.5,28c3.5,0,6.2,2.8,6.2,6.3s-2.7,6.3-6.2,6.3s-6.2-2.8-6.2-6.3S12,28,15.5,28z M15.5,39.7
			c3,0,5.2-2.4,5.2-5.4c0-3-2.2-5.4-5.2-5.4s-5.2,2.4-5.2,5.4C10.3,37.3,12.5,39.7,15.5,39.7z"/>
		<path class="st5" d="M24,40.5V28.2h1l5.6,7.5c0.8,1.1,1.5,2.1,2.3,3.1l0,0c0-1.2,0-2.4,0-3.7v-6.9h1v12.3h-1L27.4,33
			c-0.8-1.1-1.5-2.1-2.3-3.1l0,0c0,1.2,0,2.4,0,3.7v6.9H24z"/>
		<path class="st5" d="M37,28.2h1v11.4h6.1v1H37V28.2z"/>
		<path class="st5" d="M46.4,28.2h1v12.3h-1V28.2z"/>
		<path class="st5" d="M50.5,40.5V28.2h1l5.6,7.5c0.8,1.1,1.5,2.1,2.3,3.1l0,0c0-1.2,0-2.4,0-3.7v-6.9h1v12.3h-1L53.8,33
			c-0.8-1.1-1.5-2.1-2.3-3.1l0,0c0,1.2,0,2.4,0,3.7v6.9H50.5z"/>
		<path class="st5" d="M63.5,28.2h6.8v1h-5.8v4.5h5.1v1h-5.1v5h5.9v1h-7V28.2z"/>
	</g>
	<g class="st4">
		<path class="st5" d="M131.8,30.4h5.6v0.8h-4.8v3.7h4.2v0.8h-4.2v4.1h4.9v0.8h-5.7V30.4z"/>
		<path class="st5" d="M139.5,40.5V30.4h0.8l4.6,6.2c0.7,0.9,1.3,1.7,1.9,2.6l0,0c0-1,0-2,0-3v-5.7h0.8v10.1h-0.8l-4.6-6.2
			c-0.7-0.9-1.3-1.7-1.9-2.6l0,0c0,1,0,2,0,3v5.7H139.5z"/>
		<path class="st5" d="M156.3,31.2h-3.5v-0.8h7.8v0.8h-3.5v9.4h-0.9V31.2z"/>
		<path class="st5" d="M162.3,30.4h0.9v10.1h-0.9V30.4z"/>
		<path class="st5" d="M165.7,30.4h5.6v0.8h-4.8v3.7h4.2v0.8h-4.2v4.1h4.9v0.8h-5.7V30.4z"/>
		<path class="st5" d="M173.4,40.5V30.4h0.8l4.6,6.2c0.7,0.9,1.3,1.7,1.9,2.6l0,0c0-1,0-2,0-3v-5.7h0.8v10.1h-0.8l-4.6-6.2
			c-0.7-0.9-1.3-1.7-1.9-2.6l0,0c0,1,0,2,0,3v5.7H173.4z"/>
		<path class="st5" d="M184.1,30.4h2.6c1.6,0,2.9,0.3,3.9,1c1.2,0.9,2,2.4,2,4c0,1.6-0.7,3-1.8,3.9c-1,0.8-2.3,1.2-4.3,1.2h-2.4
			V30.4z M186.6,39.7c1.5,0,2.7-0.3,3.6-1c0.9-0.7,1.5-1.9,1.5-3.3c0-1.4-0.7-2.6-1.6-3.4c-0.9-0.7-2-0.9-3.5-0.9H185v8.6H186.6z"/>
		<path class="st5" d="M197.2,30.4h0.8l4.2,10.1h-0.9l-1.2-3h-5l-1.2,3H193L197.2,30.4z M198.7,34.2c-0.4-0.9-0.8-1.9-1.1-2.8h0
			c-0.3,0.9-0.7,1.8-1.1,2.8l-1,2.5h4.3L198.7,34.2z"/>
	</g>
	<g transform="translate(158 18)">
		<g>
			<circle class="st3" cx="-57.5" cy="9.5" r="23"/>
		</g>
		<g>
			<path class="st6" d="M-67.5-0.5h21v23h-21V-0.5z"/>
		</g>
		<g>
			<polygon class="st6" points="-53,0.5 -54,0.5 -54,-4 -60,-4 -60,-0.5 -61,-0.5 -61,-5 -53,-5 			"/>
		</g>
		<g>
			<path class="st7" d="M-50.5,33.5l-5-23l20,10l3,12L-50.5,33.5z"/>
		</g>
		<g>
			<path class="st3" d="M-46.5,26.5l-3,3l-4-16l14,7l-3,3l4,4l-4,4"/>
		</g>
	</g>
</g>
</svg>
