<?xml version="1.0" encoding="utf-8"?>
<!-- Generator: Adobe Illustrator 21.0.2, SVG Export Plug-In . SVG Version: 6.00 Build 0)  -->
<svg version="1.1" id="Capa_1" xmlns="http://www.w3.org/2000/svg" xmlns:xlink="http://www.w3.org/1999/xlink" x="0px" y="0px"
	 viewBox="0 0 500 500" style="enable-background:new 0 0 500 500;" xml:space="preserve">
<style type="text/css">
	.st0{fill:#FFFFFF;}
</style>
<title>card</title>
<path class="st0" d="M93.8,304.6c0-4.3,3.5-7.8,7.8-7.8h70.3c4.3,0,7.8,3.5,7.8,7.8s-3.5,7.8-7.8,7.8h-70.3
	C97.2,312.4,93.7,308.9,93.8,304.6C93.7,304.6,93.7,304.6,93.8,304.6z M101.6,281.2h140.6c4.3,0,7.8-3.5,7.8-7.8
	c0-4.3-3.5-7.8-7.8-7.8c0,0,0,0,0,0H101.6c-4.3,0-7.8,3.5-7.8,7.8C93.8,277.7,97.2,281.2,101.6,281.2
	C101.5,281.2,101.6,281.2,101.6,281.2L101.6,281.2z M437.5,164.2v171.6c0,17.2-14,31.2-31.2,31.2c0,0,0,0,0,0H93.8
	c-17.2,0-31.2-13.9-31.3-31.2v0V164.2c0-17.2,14-31.2,31.2-31.2c0,0,0,0,0,0h312.5C423.5,133,437.5,147,437.5,164.2L437.5,164.2
	L437.5,164.2z M78.1,203.1l23.3-23.3H78.1V203.1z M366.6,179.8h-22.1L313.3,211h22.1L366.6,179.8z M357.5,211h22.1l31.3-31.2h-22.1
	L357.5,211z M322.5,179.8h-22.2L269.1,211h22.1L322.5,179.8z M278.3,179.8h-22.1L224.9,211H247L278.3,179.8z M234.1,179.8H212
	L180.7,211h22.1L234.1,179.8z M189.9,179.8h-22.1L136.5,211h22.1L189.9,179.8z M145.7,179.8h-22.1L92.3,211h22.1L145.7,179.8z
	 M421.9,226.6H78.1v109.2c0,8.6,7,15.6,15.6,15.6h312.5c8.6,0,15.6-7,15.6-15.6L421.9,226.6z M421.9,190.8L401.7,211h20.2
	L421.9,190.8z M421.9,164.2c0-8.6-7-15.6-15.6-15.6H93.8c-8.6,0-15.6,7-15.6,15.6H421.9z"/>
</svg>
