<?xml version="1.0" encoding="utf-8"?>
<!-- Generator: Adobe Illustrator 21.0.2, SVG Export Plug-In . SVG Version: 6.00 Build 0)  -->
<svg version="1.1" id="Capa_1" xmlns="http://www.w3.org/2000/svg" xmlns:xlink="http://www.w3.org/1999/xlink" x="0px" y="0px"
	 viewBox="0 0 500 500" style="enable-background:new 0 0 500 500;" xml:space="preserve">
<style type="text/css">
	.st0{fill:#FFFFFF;}
</style>
<title>consultation</title>
<path class="st0" d="M429.7,211H328.1V93.8c0-4.3-3.5-7.8-7.8-7.8c0,0,0,0,0,0h-250c-4.3,0-7.8,3.5-7.8,7.8v203
	c0,4.3,3.5,7.8,7.8,7.8c0,0,0,0,0,0h23.4v46.9l84.4-46.9h40.6v70.3c0,4.3,3.5,7.8,7.8,7.8h125l54.7,31.3v-31.2h23.4
	c4.3,0,7.8-3.5,7.8-7.8V218.8C437.5,214.5,434,211,429.7,211z M178.1,289.1h-4.1l-3.5,2l-61.2,34v-36H78.1V101.6h234.4v187.4
	L178.1,289.1z M421.9,367.2h-31.2v20l-31.3-18l-3.6-2.1H234.4v-62.5h85.9c4.3,0,7.8-3.5,7.8-7.8v-70.3h93.8L421.9,367.2z
	 M234.4,171.9c0,18.9-21.7,34.5-31.3,40.4v13.8c0,0.1,0,0.3,0,0.5c0,4.3-3.5,7.8-7.8,7.8s-7.8-3.5-7.8-7.8l0,0v-23.3l4.1-2.2
	c5.1-2.9,10-6.3,14.5-10.2c8.2-7,12.7-13.7,12.7-18.9c0-7.3-1.5-12.9-4.3-16.5c-3.6-4.6-9.8-6.9-19.1-6.9c-7.7,0-13.6,2-17.5,6.1
	c-6.3,6.6-6,16.9-6,17l0,0c0,0.1,0,0.3,0,0.4c-0.1,4.3-3.6,7.8-7.9,7.7c-4.1-0.1-7.4-3.2-7.7-7.3l0,0c0-0.7-0.8-16.9,10.2-28.4
	c6.9-7.3,16.7-11,28.9-11C220.5,132.9,234.3,146.7,234.4,171.9z M203.1,250c0,4.3-3.5,7.8-7.8,7.8s-7.8-3.5-7.8-7.8
	c0-4.3,3.5-7.8,7.8-7.8l0,0C199.6,242.2,203.1,245.7,203.1,250z"/>
</svg>
