<?xml version="1.0" encoding="utf-8"?>
<!-- Generator: Adobe Illustrator 21.0.2, SVG Export Plug-In . SVG Version: 6.00 Build 0)  -->
<svg version="1.1" id="Capa_1" xmlns="http://www.w3.org/2000/svg" xmlns:xlink="http://www.w3.org/1999/xlink" x="0px" y="0px"
	 viewBox="0 0 500 500" style="enable-background:new 0 0 500 500;" xml:space="preserve">
<style type="text/css">
	.st0{fill:#FFFFFF;}
</style>
<title>delivery_truck</title>
<path class="st0" d="M437.5,250l-0.2,78.2h-24.1c-4.3,21.1-24.9,34.8-46,30.5c-15.4-3.1-27.4-15.1-30.5-30.5H233.6
	c-4.3,21.1-24.9,34.8-46,30.5c-15.4-3.1-27.4-15.1-30.5-30.5h-16.4c-8.6,0-15.6-7-15.6-15.6c0,0,0,0,0,0h-7.8
	c-4.3-0.2-7.7-3.8-7.5-8.1c0.1-4.1,3.4-7.4,7.5-7.5h7.8v-31.3h-23.4c-4.3,0-7.8-3.5-7.8-7.8c0-4.3,3.5-7.8,7.8-7.8H125v-31.3H85.9
	c-4.3,0-7.8-3.5-7.8-7.8c0-4.3,3.5-7.8,7.8-7.8H125v-31.3H70.3c-4.3,0-7.8-3.5-7.8-7.8c0-4.3,3.5-7.8,7.8-7.8H125
	c0-8.6,7-15.6,15.6-15.6l0,0h171.9c8.6,0,15.6,7,15.6,15.6l0,0v31.3h0.5h46.2L437.5,250z M218.8,320.4c0-12.9-10.5-23.4-23.5-23.4
	s-23.4,10.5-23.4,23.5c0,12.9,10.5,23.4,23.4,23.4C208.3,343.8,218.7,333.3,218.8,320.4z M312.5,312.6V156.1H140.6v156.4H157
	c4.3-21.1,24.9-34.8,46-30.5c15.4,3.1,27.4,15.1,30.5,30.5H312.5z M398.5,320.4c0-12.9-10.5-23.4-23.5-23.4
	c-12.9,0-23.4,10.5-23.4,23.5c0,12.9,10.5,23.4,23.4,23.4C387.9,343.8,398.4,333.3,398.5,320.4L398.5,320.4z M421.9,256.5
	l-53.5-53.4h-39.8h-0.5v109.5h8.6c4.3-21.1,24.9-34.8,46-30.5c15.4,3.1,27.4,15.1,30.5,30.5h8.5L421.9,256.5z"/>
</svg>
