<svg id="Layer_1" data-name="Layer 1" xmlns="http://www.w3.org/2000/svg" viewBox="0 0 396.85 396.85"><defs><style>.cls-1{fill:#fff;}</style></defs><title>instagram</title><path class="cls-1" d="M286,132.18a38.31,38.31,0,0,0-21.35-21.35c-14.77-5.85-49.87-4.53-66.25-4.53s-51.48-1.32-66.25,4.53a38.31,38.31,0,0,0-21.35,21.35c-5.85,14.77-4.53,49.87-4.53,66.25s-1.32,51.48,4.53,66.25A38.31,38.31,0,0,0,132.18,286c14.77,5.85,49.87,4.53,66.25,4.53s51.48,1.32,66.25-4.53A38.31,38.31,0,0,0,286,264.67c5.85-14.77,4.53-49.87,4.53-66.25S291.87,146.95,286,132.18ZM198.43,256A57.62,57.62,0,1,1,256,198.43,57.54,57.54,0,0,1,198.43,256Zm60-104.12a13.45,13.45,0,1,1,13.45-13.46A13.42,13.42,0,0,1,258.38,151.92Zm-22.52,46.5A37.44,37.44,0,1,1,198.43,161,37.51,37.51,0,0,1,235.86,198.43ZM198.43,10.93c-103.55,0-187.5,83.95-187.5,187.5s83.95,187.5,187.5,187.5,187.5-83.95,187.5-187.5S302,10.93,198.43,10.93ZM310,244.78c-.88,18-5,33.93-18.13,47.09s-29.1,17.26-47.09,18.13c-15.5.88-30.86.73-46.36.73s-30.86.15-46.36-.73c-18-.88-33.93-5-47.09-18.13s-17.26-29.1-18.13-47.09c-.88-15.5-.73-30.86-.73-46.36s-.15-30.86.73-46.36c.88-18,5-33.93,18.13-47.09s29.1-17.26,47.09-18.13c15.5-.88,30.86-.73,46.36-.73s30.86-.15,46.36.73c18,.88,33.93,5,47.09,18.13s17.26,29.1,18.13,47.09c.88,15.5.73,30.86.73,46.36S310.88,229.28,310,244.78Z"/></svg>