<?xml version="1.0" encoding="utf-8"?>
<!-- Generator: Adobe Illustrator 21.0.2, SVG Export Plug-In . SVG Version: 6.00 Build 0)  -->
<svg version="1.1" id="Capa_1" xmlns="http://www.w3.org/2000/svg" xmlns:xlink="http://www.w3.org/1999/xlink" x="0px" y="0px"
	 viewBox="0 0 500 500" style="enable-background:new 0 0 500 500;" xml:space="preserve">
<style type="text/css">
	.st0{fill:#FFFFFF;}
</style>
<title>operator</title>
<path class="st0" d="M384,345.5l-1.3-0.4c-19.4-5.2-25.9-10.2-34.6-13.5c-30.6-11.7-38.6-20.1-40.6-24l-0.2-0.5l-0.1-9.3
	c6.3-6.3,12.1-13.1,17.4-20.4c25.4-6.9,38.7-22.3,42.8-37.2c3.1-10.7,1.2-22.2-5-31.4l2-7.5c11.6-43.8,8.1-78.2-10.3-102.1
	c-5.4-7-12-12.9-19.4-17.7c-3.2-2.4-26.3-19.1-70.4-19.1c-17.5,0.1-34.9,2.5-51.8,6.9c-23.9,6.1-42.7,19.3-56,39.3
	c-10.9,16.4-18,37.4-21.3,62.4c-5.6,42.8,1.5,88.5,6.2,111.9l8.4,41.8l7-42c1.6-8.5,3.9-16.8,6.7-24.9c7.6,14.8,17.5,28.3,29.4,40
	l-0.1,9.3l-0.2,0.5c-2,4-10,12.4-40.6,24c-8.6,3.3-15.2,8.3-34.6,13.5l-1.3,0.4c-17.6,5.7-29.6,22.1-29.6,40.7v51.4h327v-51.4
	C413.5,367.6,401.6,351.2,384,345.5z M352.2,236.2c-1.9,7-6.8,13.4-14,18.3c5.6-11.5,9.5-23.8,11.4-36.5
	C353.1,223.4,354.1,230.1,352.2,236.2z M353.5,176.9c-1.9-2.6-4-5.1-6.3-7.5c-8.5-8.8-18.8-15.7-30.2-20.1l16.8-48.8
	c2.8,2.5,5.4,5.2,7.7,8.2C354.1,125,358.1,147.9,353.5,176.9L353.5,176.9z M151.2,245.6c-2.5-21.6-3.8-47.7-0.6-72.5
	c2.9-22.7,9.3-41.4,18.8-55.8c11.1-16.7,26.9-27.7,46.9-32.8c15.7-4.1,31.8-6.3,48-6.4c21.2,0,36.6,4.3,45.8,7.9
	c3.7,1.4,7.2,3.1,10.6,5l-18.8,54.5c-6.2-0.7-12.5-1.1-18.7-1.1c-27.4,0-51.9,7.2-73,21.5c-16.8,11.4-31.3,27.1-43.1,46.8
	C160.8,223.3,155.5,234.2,151.2,245.6z M171.6,237.6c2.7-5.8,5.7-11.5,9.1-17c10.7-17.7,23.6-31.7,38.5-41.7
	c18.4-12.4,39.9-18.7,64-18.7c7.6,0,15.1,0.6,22.6,1.7c9.9,2.9,18.9,7.9,26.6,14.7c1.9,8.5,2.9,17.1,2.9,25.8
	c0,20.1-7.1,41.7-20,61.3c-5.9,1.2-11.9,1.8-17.9,1.9c-3.7-7.2-12.6-12.2-22.9-12.2h-1c-13.8,0.4-24.8,9.7-24.4,20.8
	c0.3,10.8,11.3,19.3,24.7,19.3c0.3,0,0.6,0,1,0c10-0.3,18.5-5.3,22.3-12.1c1.6,0,3.1-0.1,4.6-0.2c-8,9-17.4,16.8-27.7,23.2
	c-9,5.3-17.5,8.3-23.9,8.3s-15-2.9-23.9-8.3c-10.9-6.7-20.7-15.1-29.1-24.8C186.1,267.2,177.5,253,171.6,237.6z M283.5,273.1
	c0,0.3-0.4,1.1-1.4,2c-2.3,1.7-5,2.7-7.9,2.7h-0.5c-5.9,0-9-3-9.1-4.1c0.2-0.8,0.7-1.5,1.4-2c2.3-1.7,5.1-2.7,7.9-2.7h0.5
	C280.3,269,283.5,272.1,283.5,273.1L283.5,273.1z M397.9,421.9H102.1v-35.7c0-11.7,7.5-22,18.5-25.8l0.9-0.3
	c10.1-2.6,19.8-6.3,29.2-10.9c2.5-1.2,4.7-2.2,6.8-3c17.5-6.7,41.6-17.2,48.9-31.5c0.3-0.5,0.5-1,0.6-1.3l1.1-2.4
	c14.5,10.8,29.5,17.1,41.9,17.1s27.4-6.3,41.9-17.1l1.1,2.4c0.1,0.2,0.3,0.7,0.6,1.3c7.4,14.3,31.5,24.9,49,31.5
	c2.1,0.8,4.3,1.8,6.8,3c9.3,4.6,19.1,8.3,29.2,10.9l0.9,0.3c11.1,3.7,18.5,14.1,18.5,25.8L397.9,421.9L397.9,421.9z"/>
</svg>
