<svg id="Capa_1" data-name="Capa 1" xmlns="http://www.w3.org/2000/svg" viewBox="0 0 500 500"><defs><style>.cls-1{isolation:isolate;font-size:270px;font-family:REZ, REZ;}.cls-1,.cls-3{fill:#fff;}.cls-2{fill:none;}</style></defs><title>puntos</title><text class="cls-1" transform="translate(196 289.9)">p</text><path class="cls-2" d="M377.52,170.69a27.45,27.45,0,0,0,6.18-.71,160.38,160.38,0,0,0-32.1-36,27.49,27.49,0,0,0,25.92,36.67Z"/><path class="cls-2" d="M404.11,150.19A27.49,27.49,0,0,0,373.56,116,188.52,188.52,0,0,1,404.11,150.19Z"/><path class="cls-2" d="M328.49,143.18a48.84,48.84,0,0,1,5.21-22,159.38,159.38,0,1,0,60.75,68.05,49.06,49.06,0,0,1-66-46.06Z"/><path class="cls-3" d="M417.18,172a49.18,49.18,0,0,1-22.73,17.22,159.54,159.54,0,1,1-60.75-68.05,49.24,49.24,0,0,1,19.63-20.66A186.62,186.62,0,0,0,250,69.5C146.43,69.5,62.5,153.45,62.5,257S146.43,444.5,250,444.5,437.5,360.55,437.5,257A186.71,186.71,0,0,0,417.18,172Z"/><path class="cls-3" d="M377.52,170.69A27.49,27.49,0,0,1,351.6,134a160,160,0,0,0-17.91-12.83,49.06,49.06,0,0,0,60.75,68.05A159.22,159.22,0,0,0,383.71,170,27.45,27.45,0,0,1,377.52,170.69Z"/><path class="cls-3" d="M377.52,115.69a27.5,27.5,0,0,1,26.59,34.51A187.4,187.4,0,0,1,417.18,172a49,49,0,0,0-63.86-71.49A188.24,188.24,0,0,1,373.56,116,27.59,27.59,0,0,1,377.52,115.69Z"/><path class="cls-3" d="M333.7,121.19A160,160,0,0,1,351.6,134a27.57,27.57,0,0,1,22-18,188.24,188.24,0,0,0-20.23-15.45A49.24,49.24,0,0,0,333.7,121.19Z"/><path class="cls-3" d="M383.71,170a159.22,159.22,0,0,1,10.74,19.26A49.18,49.18,0,0,0,417.18,172a187.4,187.4,0,0,0-13.07-21.83A27.59,27.59,0,0,1,383.71,170Z"/></svg>