<?xml version="1.0" encoding="utf-8"?>
<!-- Generator: Adobe Illustrator 21.0.2, SVG Export Plug-In . SVG Version: 6.00 Build 0)  -->
<svg version="1.1" id="Capa_1" xmlns="http://www.w3.org/2000/svg" xmlns:xlink="http://www.w3.org/1999/xlink" x="0px" y="0px"
	 viewBox="0 0 500 500" style="enable-background:new 0 0 500 500;" xml:space="preserve">
<style type="text/css">
	.st0{fill:#FFFFFF;}
</style>
<title>question</title>
<path class="st0" d="M370,182.9c-0.1-38.2-10.6-68.2-31.4-89s-50.6-31.4-88.6-31.4c-37.3,0-67.2,11.5-88.6,34.2
	c-34,36-31.5,85.8-31.3,87.9l3.1,11.8c7.4,15.3,25.8,21.7,41.1,14.4c8.3-4,14.3-11.4,16.5-20.4l0.9-9c0-1.3-0.4-26.6,14.7-42.3
	c9.4-9.8,24.1-14.7,43.7-14.7c23.7,0,39.3,5.4,47.8,16.4c6.9,9,10.4,23.1,10.5,42.1c0,5.8-3.2,22-33.1,47.7
	c-12.4,10.5-25.8,19.9-39.9,28.1l-16.1,8.8v71.9l1.3,8.6c4.7,16.4,21.7,25.9,38.1,21.2c13.3-3.8,22.4-16,22.4-29.8
	c0-0.6,0-1.2-0.1-1.6v-34.4C310.7,284.2,370.1,238.8,370,182.9z M267.8,291.4l-4,2.5v44.2v0.7c0,0.2,0,0.4,0,0.6
	c0,7.6-6.1,13.7-13.7,13.7c-7.6,0-13.7-6.1-13.7-13.7l-0.1-8v-53.7l7.2-3.9c15.1-8.7,29.5-18.8,42.8-30.1c25.6-22,39.2-43,39.1-60.8
	c0-22.9-4.8-40.6-14-52.6c-12-15.6-32-23.1-61.3-23.1c-24.5,0-43.3,6.7-56,20c-14,14.7-18,34.6-19.1,46l-0.4,9c0,0.2,0,0.5,0,0.7v0
	c-0.1,7.6-6.4,13.6-14,13.5c-7.1-0.1-13-5.7-13.4-12.8l-0.1-1.4c-0.1-7.6,0.6-46.1,26.7-73.7c18.2-19.1,43.8-28.8,76.2-28.8
	c67.1,0,102.7,35.7,102.8,103.2c0,21.2-10.7,43.4-32,66C303.1,267.7,282.2,282.4,267.8,291.4z M250,375.6
	c-17.1-0.1-31,13.7-31.1,30.8c-0.1,17.1,13.7,31,30.8,31.1s31-13.7,31.1-30.8c0,0,0-0.1,0-0.1C280.8,389.5,267.1,375.7,250,375.6z
	 M250,420.3c-7.6,0-13.8-6.1-13.8-13.7c0-7.6,6.1-13.8,13.7-13.8c7.6,0,13.8,6.1,13.8,13.7c0,0,0,0,0,0
	C263.7,414.1,257.6,420.3,250,420.3L250,420.3z"/>
</svg>
