<?xml version="1.0" encoding="utf-8"?>
<!-- Generator: Adobe Illustrator 21.0.2, SVG Export Plug-In . SVG Version: 6.00 Build 0)  -->
<svg version="1.1" id="Capa_1" xmlns="http://www.w3.org/2000/svg" xmlns:xlink="http://www.w3.org/1999/xlink" x="0px" y="0px"
	 viewBox="0 0 500 500" style="enable-background:new 0 0 500 500;" xml:space="preserve">
<style type="text/css">
	.st0{fill:#F27925;}
</style>
<title>search</title>
<path class="st0" d="M433.9,421.5L316.2,303.9c53.3-59.8,48-151.6-11.8-204.9c-57.5-51.3-145.1-48.6-199.4,6
	c-56.6,56.6-56.6,148.7,0,205.3c54.2,54.2,141.2,56.9,198.6,6.2l118.7,118.4c3.5,3.5,9.1,3.5,12.6,0c1.7-1.7,2.6-3.9,2.6-6.3
	C437.4,425.8,436.1,423.3,433.9,421.5z M297.5,297.7c-49.6,49.4-130,49.3-179.4-0.4s-49.3-130,0.4-179.4s130-49.3,179.4,0.4
	c35.9,36.1,46.8,90.1,27.6,137.3C319.1,271.4,309.6,285.7,297.5,297.7z"/>
</svg>
