<?xml version="1.0" encoding="utf-8"?>
<!-- Generator: Adobe Illustrator 21.0.2, SVG Export Plug-In . SVG Version: 6.00 Build 0)  -->
<svg version="1.1" id="Capa_1" xmlns="http://www.w3.org/2000/svg" xmlns:xlink="http://www.w3.org/1999/xlink" x="0px" y="0px"
	 viewBox="0 0 500 500" style="enable-background:new 0 0 500 500;" xml:space="preserve">
<style type="text/css">
	.st0{fill:#F27925;}
</style>
<title>shopping_cart</title>
<path class="st0" d="M388.5,332.3H195.6c-3.2,0-5.8-2.6-5.8-5.8s2.6-5.8,5.8-5.8H390l47.5-156.9H159.2L146.4,117l-0.6-2.3l-0.3,0.1
	c-1.2-2.2-3.2-3.8-5.6-4.5v-0.2l-66.6-7.9l-2.2-0.2v0.2c-5.3,0.6-9.2,5.4-8.6,10.7c0.5,4.5,4,8,8.4,8.6l58.4,6.9l52.7,176.9
	c-11.7,7.4-15.2,23-7.7,34.7c3.4,5.3,8.7,9.2,14.8,10.8c-7.9,16.3-1.1,36,15.3,43.9s36,1.1,43.9-15.3c4.2-8.7,4.4-18.9,0.4-27.8
	h63.6c-7.4,16.5,0,36,16.5,43.4s36,0,43.4-16.5c3.8-8.5,3.8-18.3,0-26.9h16.3c5.4,0,9.7-4.3,9.7-9.7S393.9,332.3,388.5,332.3
	L388.5,332.3z M355.7,365.2c0,7.4-6,13.5-13.4,13.5c-7.4,0-13.5-6-13.5-13.4c0-7.4,6-13.5,13.4-13.5c0,0,0,0,0,0
	C349.7,351.7,355.7,357.7,355.7,365.2L355.7,365.2z M232.3,365.2c0,7.4-6,13.5-13.4,13.5s-13.5-6-13.5-13.4c0-7.4,6-13.5,13.4-13.5
	c0,0,0,0,0,0C226.2,351.7,232.2,357.7,232.3,365.2L232.3,365.2z M164.5,183.3H412l-36.7,118.2H201.2L164.5,183.3z"/>
</svg>
