<?xml version="1.0" encoding="utf-8"?>
<!-- Generator: Adobe Illustrator 21.0.2, SVG Export Plug-In . SVG Version: 6.00 Build 0)  -->
<svg version="1.1" id="Capa_1" xmlns="http://www.w3.org/2000/svg" xmlns:xlink="http://www.w3.org/1999/xlink" x="0px" y="0px"
	 viewBox="0 0 500 500" style="enable-background:new 0 0 500 500;" xml:space="preserve">
<style type="text/css">
	.st0{fill:#FFFFFF;}
</style>
<title>store</title>
<path class="st0" d="M437,186.7l-0.3-1.4c0-0.2-0.1-0.4-0.1-0.6l-26.3-63.5V90h-321v31.2l-25.9,63.5c-0.1,0.3-0.1,0.5-0.1,0.8
	l-0.3,1.3c-0.4,2.3-0.5,4.7-0.5,7c0,16.4,9,31.5,23.4,39.3v177h328.2V232.9c14.4-7.8,23.4-22.9,23.4-39.3
	C437.5,191.4,437.3,189,437,186.7z M419.3,183.7h-57.4l-6.9-46.3h45.4L419.3,183.7z M104.9,105.6h289.8v15.6H104.9V105.6z
	 M348.4,199.3l0.9,5.7l-4.6,6.1c-9.6,12.8-27.8,15.4-40.6,5.8c-2.2-1.7-4.2-3.6-5.8-5.8l-4.7-6.3l-0.3-5.5L348.4,199.3z
	 M292.4,183.7l-2.3-46.3h49l6.9,46.3H292.4z M277.5,199.3L277.5,199.3l0.3,5.7l-4.6,6.1c-9.6,12.8-27.8,15.4-40.6,5.8
	c-2.2-1.7-4.2-3.6-5.8-5.8l-4.7-6.3l0.3-5.5L277.5,199.3z M223.1,183.7l2.4-46.3h49.1l2.3,46.3H223.1z M154,183.7l6.8-46.3h49
	l-2.4,46.3H154z M206.7,199.3l-0.3,5.7l-4.6,6.1c-9.6,12.8-27.8,15.4-40.6,5.8c-2.2-1.7-4.2-3.6-5.8-5.8l-4.5-6l0.9-5.8H206.7z
	 M99.6,137.3H145l-6.8,46.3H80.7L99.6,137.3z M78.7,199.3h57.2l-1.2,6.1l-4.3,5.8c-9.6,12.8-27.8,15.5-40.6,5.9
	C84,212.7,80,206.4,78.7,199.3L78.7,199.3z M367.2,394.4h-62.5v-54.7h7.8c4.3,0.2,7.9-3.2,8.1-7.5c0.2-4.3-3.2-7.9-7.5-8.1
	c-0.2,0-0.4,0-0.6,0h-7.8v-54.6h62.5V394.4z M398.4,394.4h-15.6V253.9h-93.8v140.5H101.6V237.9c15.9,2,31.7-4.7,41.3-17.5
	c14.8,19.7,42.8,23.7,62.5,8.9c3.4-2.5,6.4-5.5,8.9-8.9c14.8,19.7,42.8,23.7,62.5,8.9c3.4-2.5,6.4-5.5,8.9-8.9
	c14.8,19.7,42.8,23.7,62.5,8.9c3.4-2.5,6.4-5.5,8.9-8.9c9.6,12.8,25.4,19.5,41.3,17.5L398.4,394.4z M392.8,222.7
	c-9.1,0-17.8-4.3-23.2-11.6l-4.5-6l-0.9-5.8h57.1C418.6,212.9,406.7,222.7,392.8,222.7L392.8,222.7z M117.2,363.2h156.3V253.9H117.2
	V363.2z M132.8,269.5h125v78.1h-125V269.5z M249.9,316.3c0,2.1-0.8,4.1-2.3,5.5L232,337.5c-2.8,3.3-7.7,3.6-11,0.8
	c-3.3-2.8-3.6-7.7-0.8-11c0.3-0.3,0.5-0.6,0.8-0.8l15.6-15.6c3.1-3,8-3,11,0C249.1,312.3,249.9,314.3,249.9,316.3L249.9,316.3z
	 M249.9,285.1c0,2.1-0.8,4.1-2.3,5.5l-46.9,46.8c-2.8,3.3-7.7,3.8-11,1s-3.8-7.7-1-11c0.3-0.4,0.6-0.7,1-1l46.9-46.8c3.1-3,8-3,11,0
	C249.2,281.1,250,283.1,249.9,285.1L249.9,285.1z"/>
</svg>
