<svg id="Layer_1" data-name="Layer 1" xmlns="http://www.w3.org/2000/svg" viewBox="0 0 396.85 396.85"><defs><style>.cls-1{fill:#fff;}</style></defs><title>youtube</title><path class="cls-1" d="M175.33,224.44v51.42h-.08a14.34,14.34,0,0,1-3.94,3.7,6.62,6.62,0,0,1-3.46,1.45,2.82,2.82,0,0,1-2.49-1,5.47,5.47,0,0,1-.8-3.46V224.44H151.91v56.81c0,4.1.72,7.08,2.25,9.09a7.84,7.84,0,0,0,6.68,3.06,14.69,14.69,0,0,0,7.32-2.17,30.2,30.2,0,0,0,7.24-6.28v7.56H188V224.44Z"/><polygon class="cls-1" points="152.07 200.21 108.45 200.21 108.45 213.57 123.18 213.57 123.18 292.28 137.34 292.28 137.34 213.57 152.07 213.57 152.07 200.21"/><path class="cls-1" d="M236.49,240.61c0-5.55-1-9.74-3.14-12.63a10.71,10.71,0,0,0-9.25-4.43,12.38,12.38,0,0,0-5.79,1.61,17.24,17.24,0,0,0-5.39,4.75V200.3H200.2v92.06h12.71v-5.23A14.66,14.66,0,0,0,225,293.24c3.78,0,6.6-1.29,8.61-3.86s3-6.28,3-11.11h-.08Zm-12.8,35.81h-.08c0,2.17-.32,3.78-1,4.67a4,4,0,0,1-3.38,1.45,6.84,6.84,0,0,1-3.06-.72,8.74,8.74,0,0,1-3-2.41V237.07a8.41,8.41,0,0,1,2.57-2.09,5.5,5.5,0,0,1,2.66-.72,5.06,5.06,0,0,1,3.94,1.77,8.8,8.8,0,0,1,1.37,5.23Z"/><path class="cls-1" d="M198.43,10.93C95,10.93,10.93,95,10.93,198.43S95,385.93,198.43,385.93s187.5-84.11,187.5-187.5S301.81,10.93,198.43,10.93ZM224,97h12.63v52.07a5.63,5.63,0,0,0,.8,3.46,3,3,0,0,0,2.57,1,6.88,6.88,0,0,0,3.46-1.45,18.6,18.6,0,0,0,3.86-3.7V97h.08v.24h12.63v67.92H247.43v-7.56a30.19,30.19,0,0,1-7.24,6.28,14.69,14.69,0,0,1-7.32,2.17,7.84,7.84,0,0,1-6.68-3.06c-1.45-2-2.17-5.07-2.17-9.09Zm-28.65-1.69a17.41,17.41,0,0,1,12.8,4.91,16.85,16.85,0,0,1,5,12.63V148c0,5.87-1.69,10.46-4.91,13.76s-7.81,4.91-13.52,4.91c-5.55,0-10-1.77-13.28-5.15s-4.91-8-4.91-13.76V112.5c0-5.31,1.77-9.42,5.15-12.55S189.65,95.28,195.37,95.36Zm-51.5-22.53L153,109.6h.89l8.85-36.78h14.49l-16.58,53.84v38.23H146.52V128.35l-17-55.53ZM305.38,273.69a152.11,152.11,0,0,1-3.3,25,29.14,29.14,0,0,1-8.85,15.21,27.94,27.94,0,0,1-15.85,7.16c-13,1.45-26.23,2.17-39.43,2.58s-26.32.32-39.51.32-26.4.08-39.51-.32-26.4-1.13-39.43-2.58a27.93,27.93,0,0,1-15.85-7.16,29.68,29.68,0,0,1-8.85-15.21,142,142,0,0,1-3.3-25c-.48-8.53-.48-16.9-.48-25.11s0-16.66.48-25.19a152.17,152.17,0,0,1,3.3-25,29.69,29.69,0,0,1,8.85-15.21A27.94,27.94,0,0,1,119.48,176c13-1.45,26.23-2.17,39.43-2.57s26.32-.32,39.51-.32,26.4-.08,39.51.32,26.4,1.13,39.43,2.57a27.94,27.94,0,0,1,15.85,7.16,29.69,29.69,0,0,1,8.85,15.21c3.7,16,3.7,33.4,3.7,49.81l.08.4C305.86,256.79,305.86,265.32,305.38,273.69Z"/><path class="cls-1" d="M265.38,222.83a18.37,18.37,0,0,0-13.84,5.55c-3.62,3.7-5.39,8.53-5.39,14.49v30.5c0,6.6,1.61,11.67,4.83,15.45s7.73,5.55,13.36,5.55c6.28,0,11-1.85,14.16-5.31s4.75-8.77,4.75-15.69v-5.15h-13V273c0,4-.48,6.6-1.29,7.73s-2.33,1.77-4.43,1.77a4.53,4.53,0,0,1-4.18-2.09c-1-1.37-1.29-3.86-1.29-7.48v-12.8h24.14V260h.08V242.79c0-6.44-1.53-11.43-4.67-14.81S271.09,222.83,265.38,222.83Zm4.83,26.72H259.1v-6.92H259c0-2.9.4-4.91,1.37-6.12a5.11,5.11,0,0,1,4.35-1.77c2,0,3.3.56,4.1,1.77s1.37,3.22,1.37,6.12Z"/><path class="cls-1" d="M194.64,154.83a5.29,5.29,0,0,0,4.1-1.53,6.11,6.11,0,0,0,1.53-4.35V112a4.72,4.72,0,0,0-1.53-3.62,5.8,5.8,0,0,0-4-1.37,5.1,5.1,0,0,0-3.78,1.37,4.79,4.79,0,0,0-1.45,3.62V149a6.39,6.39,0,0,0,1.37,4.35A5.22,5.22,0,0,0,194.64,154.83Z"/></svg>